<?xml version="1.0" encoding="utf-8"?>
<!-- Generator: Adobe Illustrator 16.0.0, SVG Export Plug-In . SVG Version: 6.00 Build 0)  -->
<!DOCTYPE svg PUBLIC "-//W3C//DTD SVG 1.1//EN" "http://www.w3.org/Graphics/SVG/1.1/DTD/svg11.dtd">
<svg version="1.1" id="Layer_1" xmlns="http://www.w3.org/2000/svg" xmlns:xlink="http://www.w3.org/1999/xlink" x="0px" y="0px"
	 width="344.26px" height="328.961px" viewBox="0 0 344.26 328.961" enable-background="new 0 0 344.26 328.961"
	 xml:space="preserve">
<g>
	<defs>
		<path id="SVGID_1_" d="M-478.636,346.937l-0.114-0.306C-478.72,346.73-478.682,346.832-478.636,346.937 M-350,129.667
			c0,0-59.667,42.667-54,116.333c0,0-0.5,3.125-3.25-0.75c0,0-12.5-9.5-10.125-33.25l-13,17c0,0-31.625,47.5-31.625,83.25
			c0,0-2,18.75,6.25,44.5c0,0-0.676,6.5-6.463,3.5c0,0-14.564-9.039-16.423-13.313L-471,367.5c0,0,11.459,35.917,46.104,60.833
			l188.563-5.833c0,0,40.333-30.5,50.333-61.833c0,0-34,27.667-36.667,27.667c0,0-7,2.333-2.333-4.334
			c0,0,15.833-18.833,18.667-18.833c0,0,17.666-19.001,16.5-43.167c0,0,0.5-29.667-15.334-44.667c0,0-15.5-20.333-13-28
			c0,0-1.666-10.499,0.667-11.666c0,0-14.667,5.166-18.833,15.333c0,0-6.667,10.334-6.667,27c0,0-5-35.5-12.667-50.667
			c0,0-28.333-68-27.333-86.667c0,0,1.333-38.666,12-49.666C-271,93-321,105.666-350,129.667"/>
	</defs>
	<clipPath id="SVGID_2_">
		<use xlink:href="#SVGID_1_"  overflow="visible"/>
	</clipPath>
	
		<linearGradient id="SVGID_3_" gradientUnits="userSpaceOnUse" x1="-632.0005" y1="792.001" x2="-631.0005" y2="792.001" gradientTransform="matrix(0 -335.3333 -335.3333 0 265251.75 -211502.4219)">
		<stop  offset="0" style="stop-color:#FDE905"/>
		<stop  offset="0.4233" style="stop-color:#F47721"/>
		<stop  offset="1" style="stop-color:#CD2E28"/>
	</linearGradient>
	<rect x="-478.75" y="93" clip-path="url(#SVGID_2_)" fill="url(#SVGID_3_)" width="292.75" height="335.333"/>
</g>
<g>
	<defs>
		<path id="SVGID_4_" d="M-370,181c0,0-30,43.666-28.667,79c0,0-4.999,27-0.667,34c0,0-22.666-14.333-22.666-39
			c0,0-22.463,23.731-19.564,66.865l3.254,39.018c0,0,10.932,47.02,18.624,46.84l177.535-4.146c0,0,16.872-23.559,18.846-36.734
			l2.784-52.527c0,0-1.854-20.982,0-21.315c0,0,0.521-13,2.021-15c0,0-20.5,11.667-25.333,28.5l0.666,8.166l-6.5,1.167l-1.321-5.029
			c0,0-5.679-30.137-10.345-36.304c0,0-13-32.5-42.334-78.834c0,0-17.666-38.999-5-58.666C-308.667,137-350.333,152-370,181"/>
	</defs>
	<clipPath id="SVGID_5_">
		<use xlink:href="#SVGID_4_"  overflow="visible"/>
	</clipPath>
	
		<linearGradient id="SVGID_6_" gradientUnits="userSpaceOnUse" x1="-632.0005" y1="792.0039" x2="-631" y2="792.0039" gradientTransform="matrix(0 -270.7227 -270.7227 0 214082.1719 -170689.0313)">
		<stop  offset="0" style="stop-color:#FDC016"/>
		<stop  offset="0" style="stop-color:#FDBD17"/>
		<stop  offset="0.7921" style="stop-color:#F47721"/>
		<stop  offset="1" style="stop-color:#F47721"/>
	</linearGradient>
	<rect x="-444.463" y="137" clip-path="url(#SVGID_5_)" fill="url(#SVGID_6_)" width="225.963" height="270.902"/>
</g>
<g>
	<defs>
		<path id="SVGID_7_" d="M-352,194.75c0,0-30.755,30.433-23.253,69.341L-387,278.25c0,0-16.576,35.25-19.913,44.5l-2.685,47.847
			c0,0,1.022,14.242,2.685,15.322L-267,369.959c0,0,6.027-14.655,0.264-26.182c0,0-0.854-8.184-6.434-26.48l-33.738-55.066
			c0,0-28.092-43.731-25.592-52.981c0,0-1.75-17.25,0-22.75s2.25-8.25,4.5-11.5C-328,175-350,188-352,194.75"/>
	</defs>
	<clipPath id="SVGID_8_">
		<use xlink:href="#SVGID_7_"  overflow="visible"/>
	</clipPath>
	
		<linearGradient id="SVGID_9_" gradientUnits="userSpaceOnUse" x1="-632" y1="792.0078" x2="-631" y2="792.0078" gradientTransform="matrix(0 210.9196 210.9196 0 -167385.1875 133476.1719)">
		<stop  offset="0" style="stop-color:#FFC518"/>
		<stop  offset="0.3267" style="stop-color:#FFC518"/>
		<stop  offset="1" style="stop-color:#FEEA0A"/>
	</linearGradient>
	<rect x="-409.598" y="175" clip-path="url(#SVGID_8_)" fill="url(#SVGID_9_)" width="148.625" height="210.919"/>
</g>
<g>
	<defs>
		<path id="SVGID_10_" d="M-336.73,254.667L-349,275.333L-361.25,328c0,0-1.899,19.037,3.051,23.643L-306.5,354l15.93,1.098
			c0,0-9.93-14.848-23.68-27.348c0,0-19.75-26-18.25-29.75l-4.82-22.343c0,0,1.28-18.404,1.841-21.976L-336.73,254.667z
			 M-335.479,253.681l0.229-0.181c-0.018-0.284-0.044-0.416-0.076-0.416C-335.367,253.084-335.419,253.297-335.479,253.681"/>
	</defs>
	<clipPath id="SVGID_11_">
		<use xlink:href="#SVGID_10_"  overflow="visible"/>
	</clipPath>
	
		<linearGradient id="SVGID_12_" gradientUnits="userSpaceOnUse" x1="-631.9995" y1="791.9922" x2="-630.9995" y2="791.9922" gradientTransform="matrix(0 102.014 102.014 0 -81121.1172 64725.8828)">
		<stop  offset="0" style="stop-color:#F9ED36"/>
		<stop  offset="0.4332" style="stop-color:#F9ED36"/>
		<stop  offset="0.8886" style="stop-color:#F9F294"/>
		<stop  offset="1" style="stop-color:#F9F294"/>
	</linearGradient>
	<rect x="-363.149" y="253.084" clip-path="url(#SVGID_11_)" fill="url(#SVGID_12_)" width="72.579" height="102.014"/>
</g>
<g>
	<defs>
		<rect id="SVGID_13_" x="-632" width="612" height="792"/>
	</defs>
	<clipPath id="SVGID_14_">
		<use xlink:href="#SVGID_13_"  overflow="visible"/>
	</clipPath>
	<path clip-path="url(#SVGID_14_)" fill="#C32026" d="M-387,339c0,17.949-13.208,32.5-29.5,32.5S-446,356.949-446,339
		s13.208-32.5,29.5-32.5S-387,321.051-387,339"/>
	<path clip-path="url(#SVGID_14_)" fill="#C32026" d="M-332.5,295.75c0,20.021-12.872,36.25-28.75,36.25S-390,315.771-390,295.75
		s12.872-36.25,28.75-36.25S-332.5,275.729-332.5,295.75"/>
	<path clip-path="url(#SVGID_14_)" fill="#C32026" d="M-267.5,296c0,19.882-13.096,36-29.25,36S-326,315.882-326,296
		s13.096-36,29.25-36S-267.5,276.118-267.5,296"/>
	<path clip-path="url(#SVGID_14_)" fill="#C32026" d="M-209.5,339.5c0,17.673-12.872,32-28.75,32s-28.75-14.327-28.75-32
		s12.872-32,28.75-32S-209.5,321.827-209.5,339.5"/>
</g>
<g>
	<defs>
		<rect id="SVGID_15_" x="-632" width="612" height="792"/>
	</defs>
	<clipPath id="SVGID_16_">
		<use xlink:href="#SVGID_15_"  overflow="visible"/>
	</clipPath>
	<path clip-path="url(#SVGID_16_)" fill="#C32026" d="M-327.918,656.412c0,0,15.918-58.412,23.418-70.412c0,0,19-37,31.5-52
		c0,0,36.5-59,35-62.5c0,0,21-35-15-86c0,0-8.261-13.34-25.5-24c-24.741-15.299-65.795-26.225-109,6c0,0-64.167,41.167-25.5,116.5
		c0,0,6.083,11.333,36.75,60.667c0,0,10.583,10.666,29.25,54C-347,598.667-328.835,648.157-327.918,656.412"/>
</g>
<g>
	<defs>
		<rect id="SVGID_17_" x="-632" width="612" height="792"/>
	</defs>
	<clipPath id="SVGID_18_">
		<use xlink:href="#SVGID_17_"  overflow="visible"/>
	</clipPath>
	<path clip-path="url(#SVGID_18_)" fill="#80A13E" d="M-365.25,471.5l12-11.5c0,0-13.75-16,0-37.25l-12-11.75
		C-365.25,411-390,439.25-365.25,471.5"/>
	<path clip-path="url(#SVGID_18_)" fill="#61120C" d="M-304.25,459.75l11,11.75c0,0,10-6.25,11.5-24.25s0-1.25,0-1.25
		s4.917-18.25-10.917-36l-12.833,11.5C-305.5,421.5-289.75,438-304.25,459.75"/>
	<path clip-path="url(#SVGID_18_)" fill="#F6A61C" d="M-365.25,410.5l12.25,12c0,0,23.25-25.25,48,0l12-12
		C-293,410.5-324.75,371-365.25,410.5"/>
	<path clip-path="url(#SVGID_18_)" d="M-320.833,440.167l21.333-6.5V436l4-2.333l4.667-4.167l-5.334-1.167h-5l0.667,2.167
		l-22.5,5.667c0,0-4.992-5.727-10.666-1.834c-0.81,0.556-1.465,2.086-2.023,3.1c-0.193,0.352,0,0-0.311,0.4c0,0-3,6.834,3.167,9.834
		C-332.833,447.667-323.333,453.5-320.833,440.167"/>
	<path clip-path="url(#SVGID_18_)" d="M-320.75,440.969c0,4.573-3.698,8.281-8.261,8.281s-8.261-3.708-8.261-8.281
		c0-4.574,3.698-8.281,8.261-8.281S-320.75,436.395-320.75,440.969"/>
	
		<ellipse clip-path="url(#SVGID_18_)" fill="none" stroke="#000000" stroke-miterlimit="10" cx="-329.011" cy="440.969" rx="8.261" ry="8.281"/>
</g>
<text transform="matrix(1 0 0 1 -435.0005 358.8779)" fill="#FFFFFF" font-family="'LucidaConsole'" font-size="59.836">B</text>
<g>
	<defs>
		<rect id="SVGID_19_" x="-632" width="612" height="792"/>
	</defs>
	<clipPath id="SVGID_20_">
		<use xlink:href="#SVGID_19_"  overflow="visible"/>
	</clipPath>
	<path clip-path="url(#SVGID_20_)" fill="none" stroke="#FFFFFF" stroke-miterlimit="10" d="M-423.84,341.202h2.104
		c4.031,0,7.22,0.711,9.568,2.133c2.347,1.422,3.521,3.34,3.521,5.755c0,2.085-0.716,3.517-2.148,4.295
		c-1.432,0.78-4.046,1.169-7.845,1.169h-5.2V341.202z M-423.84,325.717h2.688c4.304,0,7.206,0.37,8.706,1.11
		c1.5,0.74,2.25,2.172,2.25,4.295c0,4.324-3.876,6.486-11.628,6.486h-2.016V325.717z M-418.289,358.878
		c3.759,0,6.486-0.18,8.181-0.541c1.694-0.36,3.204-1.095,4.528-2.206c2.045-1.674,3.068-3.992,3.068-6.953
		c0-5.181-3.477-8.483-10.43-9.904c2.707-0.682,4.816-1.827,6.325-3.434c1.51-1.607,2.265-3.52,2.265-5.74
		c0-5.805-4.383-8.707-13.148-8.707h-12.096v37.485H-418.289z"/>
</g>
<text transform="matrix(1.0149 0 0 1 -380.333 314.5854)" fill="#FFFFFF" font-family="'LucidaConsole'" font-size="62.2221">A</text>
<path fill="none" stroke="#FFFFFF" stroke-miterlimit="10" d="M-361.925,281.712l7.257,18.624h-14.443L-361.925,281.712z
	 M-374.726,314.585l3.797-9.752h18.079l3.734,9.752h6.431l-15.602-38.98h-6.074l-15.602,38.98H-374.726z"/>
<text transform="matrix(1 0 0 1 -315 315.6436)" fill="#FFFFFF" font-family="'LucidaConsole'" font-size="60.1615">R</text>
<g>
	<defs>
		<rect id="SVGID_21_" x="-632" width="612" height="792"/>
	</defs>
	<clipPath id="SVGID_22_">
		<use xlink:href="#SVGID_21_"  overflow="visible"/>
	</clipPath>
	<path clip-path="url(#SVGID_22_)" fill="none" stroke="#FFFFFF" stroke-miterlimit="10" d="M-303.808,282.303h3.555
		c3.682,0,6.207,0.402,7.578,1.207c1.371,0.805,2.057,2.296,2.057,4.474c0,2.336-0.91,4.191-2.731,5.565s-4.289,2.061-7.403,2.061
		h-3.055V282.303z M-303.808,315.644v-15.687h5.229l11.896,15.687h7.005l-13.012-17.155c2.963-1.508,5.077-3.138,6.342-4.891
		s1.897-3.941,1.897-6.566c0-3.819-1.821-6.482-5.463-7.99c-1.705-0.725-4.749-1.087-9.137-1.087h-10.546v37.689H-303.808z"/>
</g>
<text transform="matrix(1 0 0 1 -255.667 358.8784)" fill="#FFFFFF" font-family="'LucidaConsole'" font-size="61.627">K</text>
<polygon fill="none" stroke="#FFFFFF" stroke-miterlimit="10" points="-244.623,358.878 -244.623,339.198 -226.617,358.878 
	-219.497,358.878 -238.063,338.477 -222.477,320.271 -228.458,320.271 -244.623,339.198 -244.623,320.271 -250.552,320.271 
	-250.552,358.878 "/>
<text transform="matrix(1 0 0 1 -380.333 505.667)" fill="#FFFFFF" font-family="'LucidaConsole'" font-size="36">ALERT</text>
<path fill="none" stroke="#FFFFFF" stroke-miterlimit="10" d="M-369.839,486.647l4.137,10.775h-8.234L-369.839,486.647z
	 M-377.137,505.667l2.165-5.643h10.307l2.129,5.643h3.666l-8.895-22.553h-3.463l-8.894,22.553H-377.137z"/>
<polygon fill="none" stroke="#FFFFFF" stroke-miterlimit="10" points="-339.129,505.667 -339.129,503.065 -351.276,503.065 
	-351.276,483.114 -354.739,483.114 -354.739,505.667 "/>
<polygon fill="none" stroke="#FFFFFF" stroke-miterlimit="10" points="-317.104,505.667 -317.104,503.065 -329.69,503.065 
	-329.69,495.155 -319.706,495.155 -319.706,492.554 -329.69,492.554 -329.69,485.716 -317.913,485.716 -317.913,483.114 
	-333.153,483.114 -333.153,505.667 "/>
<g>
	<defs>
		<rect id="SVGID_23_" x="-632" width="612" height="792"/>
	</defs>
	<clipPath id="SVGID_24_">
		<use xlink:href="#SVGID_23_"  overflow="visible"/>
	</clipPath>
	<path clip-path="url(#SVGID_24_)" fill="none" stroke="#FFFFFF" stroke-miterlimit="10" d="M-308.561,485.716h2.127
		c2.202,0,3.715,0.241,4.534,0.723c0.82,0.481,1.231,1.375,1.231,2.678c0,1.397-0.545,2.507-1.635,3.329s-2.567,1.233-4.431,1.233
		h-1.827V485.716z M-308.561,505.667v-9.387h3.129l7.118,9.387h4.191l-7.786-10.266c1.774-0.902,3.038-1.878,3.796-2.927
		c0.756-1.049,1.136-2.358,1.136-3.929c0-2.285-1.091-3.879-3.271-4.781c-1.019-0.434-2.841-0.65-5.466-0.65h-6.312v22.553H-308.561
		z"/>
	<polygon clip-path="url(#SVGID_24_)" fill="none" stroke="#FFFFFF" stroke-miterlimit="10" points="-280.998,505.667 
		-280.998,485.716 -272.314,485.716 -272.314,483.114 -293.128,483.114 -293.128,485.716 -284.462,485.716 -284.462,505.667 	"/>
</g>
<g>
	<g>
		<defs>
			<path id="SVGID_25_" d="M88.039,152.45l-0.063-0.169C87.992,152.336,88.014,152.393,88.039,152.45 M158.908,32.751
				c0,0-32.873,23.506-29.752,64.092c0,0-0.275,1.721-1.789-0.414c0,0-6.887-5.233-5.578-18.318l-7.162,9.365
				c0,0-17.422,26.169-17.422,45.865c0,0-1.104,10.33,3.441,24.516c0,0-0.371,3.582-3.561,1.929c0,0-8.023-4.98-9.047-7.335
				l4.207,11.328c0,0,6.313,19.788,25.398,33.515l103.885-3.213c0,0,22.221-16.804,27.73-34.065c0,0-18.732,15.243-20.201,15.243
				c0,0-3.857,1.284-1.285-2.388c0,0,8.723-10.376,10.283-10.376c0,0,9.732-10.469,9.09-23.783c0,0,0.275-16.343-8.445-24.607
				c0,0-8.541-11.202-7.164-15.425c0,0-0.918-5.785,0.367-6.428c0,0-8.08,2.846-10.375,8.447c0,0-3.672,5.694-3.672,14.875
				c0,0-2.756-19.558-6.979-27.913c0,0-15.609-37.464-15.059-47.747c0,0,0.732-21.303,6.609-27.363
				C202.43,12.55,174.883,19.528,158.908,32.751"/>
		</defs>
		<clipPath id="SVGID_26_">
			<use xlink:href="#SVGID_25_"  overflow="visible"/>
		</clipPath>
		
			<linearGradient id="SVGID_27_" gradientUnits="userSpaceOnUse" x1="-631.3115" y1="790.5068" x2="-630.7607" y2="790.5068" gradientTransform="matrix(0 -335.3333 -335.3333 0 265251.75 -211502.4219)">
			<stop  offset="0" style="stop-color:#FDE905"/>
			<stop  offset="0.4233" style="stop-color:#F47721"/>
			<stop  offset="1" style="stop-color:#CD2E28"/>
		</linearGradient>
		<rect x="87.977" y="12.55" clip-path="url(#SVGID_26_)" fill="url(#SVGID_27_)" width="161.283" height="184.743"/>
	</g>
	<g>
		<defs>
			<path id="SVGID_28_" d="M147.889,61.032c0,0-16.529,24.057-15.793,43.522c0,0-2.754,14.876-0.367,18.731
				c0,0-12.486-7.896-12.486-21.486c0,0-12.377,13.075-10.779,36.838l1.791,21.497c0,0,6.025,25.904,10.262,25.805l97.809-2.286
				c0,0,9.295-12.979,10.383-20.236l1.533-28.939c0,0-1.02-11.56,0-11.742c0,0,0.287-7.162,1.113-8.264
				c0,0-11.293,6.428-13.955,15.702l0.365,4.497l-3.58,0.644l-0.729-2.771c0,0-3.127-16.604-5.699-20.001
				c0,0-7.162-17.905-23.322-43.432c0,0-9.732-21.485-2.756-32.32C181.678,36.791,158.725,45.055,147.889,61.032"/>
		</defs>
		<clipPath id="SVGID_29_">
			<use xlink:href="#SVGID_28_"  overflow="visible"/>
		</clipPath>
		
			<linearGradient id="SVGID_30_" gradientUnits="userSpaceOnUse" x1="-631.1812" y1="790.1563" x2="-630.6299" y2="790.1563" gradientTransform="matrix(0 -270.7227 -270.7227 0 214082.1719 -170689.0313)">
			<stop  offset="0" style="stop-color:#FDC016"/>
			<stop  offset="0" style="stop-color:#FDBD17"/>
			<stop  offset="0.7921" style="stop-color:#F47721"/>
			<stop  offset="1" style="stop-color:#F47721"/>
		</linearGradient>
		<rect x="106.865" y="36.791" clip-path="url(#SVGID_29_)" fill="url(#SVGID_30_)" width="124.488" height="149.248"/>
	</g>
	<g>
		<defs>
			<path id="SVGID_31_" d="M157.807,68.606c0,0-16.943,16.767-12.813,38.202l-6.471,7.801c0,0-9.133,19.42-10.971,24.517
				l-1.479,26.359c0,0,0.563,7.846,1.479,8.442l77.082-8.794c0,0,3.32-8.074,0.145-14.424c0,0-0.469-4.509-3.545-14.589
				l-18.588-30.338c0,0-15.477-24.093-14.098-29.188c0,0-0.965-9.503,0-12.533c0.963-3.029,1.24-4.545,2.479-6.336
				C171.027,57.726,158.908,64.888,157.807,68.606"/>
		</defs>
		<clipPath id="SVGID_32_">
			<use xlink:href="#SVGID_31_"  overflow="visible"/>
		</clipPath>
		
			<linearGradient id="SVGID_33_" gradientUnits="userSpaceOnUse" x1="-632.5557" y1="794.3887" x2="-632.0049" y2="794.3887" gradientTransform="matrix(0 210.9196 210.9196 0 -167385.1875 133476.1719)">
			<stop  offset="0" style="stop-color:#FFC518"/>
			<stop  offset="0.3267" style="stop-color:#FFC518"/>
			<stop  offset="1" style="stop-color:#FEEA0A"/>
		</linearGradient>
		<rect x="126.074" y="57.726" clip-path="url(#SVGID_32_)" fill="url(#SVGID_33_)" width="81.881" height="116.202"/>
	</g>
	<g>
		<defs>
			<path id="SVGID_34_" d="M166.219,101.617l-6.762,11.385l-6.746,29.016c0,0-1.049,10.488,1.68,13.025l28.482,1.299l8.775,0.605
				c0,0-5.471-8.181-13.045-15.067c0,0-10.881-14.324-10.055-16.391l-2.656-12.309c0,0,0.705-10.14,1.016-12.107L166.219,101.617z
				 M166.908,101.073l0.127-0.1c-0.012-0.156-0.025-0.229-0.045-0.229C166.969,100.745,166.941,100.862,166.908,101.073"/>
		</defs>
		<clipPath id="SVGID_35_">
			<use xlink:href="#SVGID_34_"  overflow="visible"/>
		</clipPath>
		
			<linearGradient id="SVGID_36_" gradientUnits="userSpaceOnUse" x1="-633.4927" y1="796.8789" x2="-632.9419" y2="796.8789" gradientTransform="matrix(0 102.014 102.014 0 -81121.1172 64725.8828)">
			<stop  offset="0" style="stop-color:#F9ED36"/>
			<stop  offset="0.4332" style="stop-color:#F9ED36"/>
			<stop  offset="0.8886" style="stop-color:#F9F294"/>
			<stop  offset="1" style="stop-color:#F9F294"/>
		</linearGradient>
		<rect x="151.662" y="100.745" clip-path="url(#SVGID_35_)" fill="url(#SVGID_36_)" width="39.986" height="56.202"/>
	</g>
	<g>
		<defs>
			<rect id="SVGID_37_" x="3.547" y="-38.687" width="337.166" height="436.334"/>
		</defs>
		<clipPath id="SVGID_38_">
			<use xlink:href="#SVGID_37_"  overflow="visible"/>
		</clipPath>
		<path clip-path="url(#SVGID_38_)" fill="#C32026" d="M138.523,148.077c0,9.889-7.277,17.906-16.252,17.906
			c-8.979,0-16.252-8.018-16.252-17.906c0-9.887,7.273-17.903,16.252-17.903C131.246,130.174,138.523,138.19,138.523,148.077"/>
		<path clip-path="url(#SVGID_38_)" fill="#C32026" d="M168.549,124.25c0,11.03-7.092,19.971-15.838,19.971
			c-8.75,0-15.842-8.94-15.842-19.971s7.092-19.971,15.842-19.971C161.457,104.279,168.549,113.22,168.549,124.25"/>
		<path clip-path="url(#SVGID_38_)" fill="#C32026" d="M204.359,124.389c0,10.952-7.215,19.832-16.115,19.832
			s-16.113-8.88-16.113-19.832c0-10.954,7.213-19.834,16.113-19.834S204.359,113.435,204.359,124.389"/>
		<path clip-path="url(#SVGID_38_)" fill="#C32026" d="M236.313,148.354c0,9.736-7.092,17.63-15.84,17.63
			c-8.746,0-15.838-7.894-15.838-17.63s7.092-17.63,15.838-17.63C229.221,130.724,236.313,138.617,236.313,148.354"/>
	</g>
	<g>
		<defs>
			<rect id="SVGID_39_" x="3.547" y="-38.687" width="337.166" height="436.334"/>
		</defs>
		<clipPath id="SVGID_40_">
			<use xlink:href="#SVGID_39_"  overflow="visible"/>
		</clipPath>
		<path clip-path="url(#SVGID_40_)" fill="#C32026" d="M171.072,322.948c0,0,8.771-32.181,12.902-38.792
			c0,0,10.467-20.384,17.354-28.647c0,0,20.107-32.505,19.283-34.434c0,0,11.57-19.283-8.264-47.379c0,0-4.551-7.35-14.049-13.222
			c-13.631-8.429-36.248-14.448-60.051,3.304c0,0-35.352,22.682-14.049,64.185c0,0,3.354,6.243,20.246,33.421
			c0,0,5.832,5.878,16.115,29.752C160.561,291.136,170.566,318.399,171.072,322.948"/>
	</g>
	<g>
		<defs>
			<rect id="SVGID_41_" x="3.547" y="-38.687" width="337.166" height="436.334"/>
		</defs>
		<clipPath id="SVGID_42_">
			<use xlink:href="#SVGID_41_"  overflow="visible"/>
		</clipPath>
		<path clip-path="url(#SVGID_42_)" fill="#80A13E" d="M150.506,221.075l6.611-6.335c0,0-7.574-8.815,0-20.521l-6.611-6.474
			C150.506,187.745,136.869,203.308,150.506,221.075"/>
		<path clip-path="url(#SVGID_42_)" fill="#61120C" d="M184.113,214.602l6.059,6.474c0,0,5.512-3.443,6.336-13.359
			c0.828-9.917,0-0.688,0-0.688s2.711-10.055-6.014-19.833l-7.072,6.334C183.422,193.528,192.102,202.619,184.113,214.602"/>
		<path clip-path="url(#SVGID_42_)" fill="#F6A61C" d="M150.506,187.47l6.75,6.61c0,0,12.809-13.91,26.443,0l6.611-6.61
			C190.311,187.47,172.818,165.708,150.506,187.47"/>
		<path clip-path="url(#SVGID_42_)" d="M174.977,203.813l11.752-3.58v1.286l2.203-1.286l2.572-2.295l-2.938-0.645h-2.756
			l0.367,1.195l-12.396,3.121c0,0-2.75-3.154-5.873-1.01c-0.449,0.307-0.809,1.148-1.117,1.707c-0.105,0.193,0,0-0.17,0.22
			c0,0-1.654,3.767,1.744,5.419C168.365,207.945,173.6,211.158,174.977,203.813"/>
		<path clip-path="url(#SVGID_42_)" d="M175.021,204.255c0,2.521-2.037,4.562-4.553,4.562c-2.512,0-4.549-2.041-4.549-4.562
			s2.037-4.562,4.549-4.562C172.984,199.693,175.021,201.734,175.021,204.255"/>
		
			<ellipse clip-path="url(#SVGID_42_)" fill="none" stroke="#000000" stroke-miterlimit="10" cx="170.471" cy="204.255" rx="4.551" ry="4.562"/>
	</g>
	<g>
		<path fill="#FFFFFF" d="M115.055,159.029v-20.651h6.664c4.83,0,7.244,1.599,7.244,4.796c0,1.224-0.416,2.278-1.248,3.163
			s-1.992,1.516-3.484,1.891c3.83,0.784,5.746,2.603,5.746,5.457c0,1.631-0.563,2.908-1.689,3.831
			c-0.73,0.612-1.563,1.017-2.496,1.215c-0.934,0.199-2.436,0.298-4.506,0.298H115.055z M118.227,147.311h1.111
			c4.27,0,6.406-1.191,6.406-3.573c0-1.169-0.414-1.958-1.24-2.366c-0.826-0.408-2.426-0.611-4.797-0.611h-1.48V147.311z
			 M118.227,156.646h2.865c2.092,0,3.533-0.214,4.322-0.644c0.787-0.429,1.182-1.218,1.182-2.366c0-1.331-0.646-2.388-1.939-3.171
			s-3.049-1.175-5.271-1.175h-1.158V156.646z"/>
	</g>
	<g>
		<defs>
			<rect id="SVGID_43_" x="3.547" y="-38.687" width="337.166" height="436.334"/>
		</defs>
		<clipPath id="SVGID_44_">
			<use xlink:href="#SVGID_43_"  overflow="visible"/>
		</clipPath>
		<path clip-path="url(#SVGID_44_)" fill="none" stroke="#FFFFFF" stroke-miterlimit="10" d="M118.229,149.291h1.158
			c2.219,0,3.977,0.391,5.271,1.175c1.293,0.784,1.939,1.84,1.939,3.171c0,1.148-0.395,1.938-1.184,2.367
			c-0.789,0.429-2.229,0.644-4.322,0.644h-2.863V149.291z M118.229,140.76h1.479c2.373,0,3.971,0.204,4.797,0.612
			c0.828,0.408,1.24,1.196,1.24,2.365c0,2.383-2.135,3.573-6.406,3.573h-1.109V140.76z M121.287,159.028
			c2.068,0,3.572-0.099,4.506-0.297s1.766-0.604,2.494-1.216c1.127-0.921,1.691-2.199,1.691-3.831c0-2.854-1.916-4.673-5.746-5.457
			c1.49-0.374,2.65-1.005,3.482-1.891c0.832-0.885,1.25-1.939,1.25-3.163c0-3.198-2.416-4.796-7.246-4.796h-6.664v20.65H121.287z"/>
	</g>
	<g>
		<path fill="#FFFFFF" d="M142.398,134.626l8.596-21.475h3.346l8.596,21.475h-3.543l-2.057-5.373h-9.961l-2.092,5.373H142.398z
			 M148.377,126.776h7.957l-3.998-10.261L148.377,126.776z"/>
	</g>
	<path fill="none" stroke="#FFFFFF" stroke-miterlimit="10" d="M152.338,116.517l3.998,10.261h-7.957L152.338,116.517z
		 M145.285,134.628l2.092-5.374h9.961l2.057,5.374h3.543l-8.596-21.476h-3.346l-8.596,21.476H145.285z"/>
	<g>
		<path fill="#FFFFFF" d="M181.166,135.209v-20.764h5.811c2.416,0,4.094,0.2,5.033,0.599c2.006,0.831,3.01,2.298,3.01,4.402
			c0,1.446-0.35,2.652-1.045,3.617c-0.697,0.966-1.861,1.864-3.494,2.695l7.168,9.451h-3.859l-6.555-8.642h-2.881v8.642H181.166z
			 M184.354,124.172h1.684c1.715,0,3.074-0.378,4.078-1.135c1.004-0.757,1.506-1.779,1.506-3.065c0-1.2-0.379-2.022-1.133-2.465
			c-0.756-0.443-2.148-0.665-4.176-0.665h-1.959V124.172z"/>
	</g>
	<g>
		<defs>
			<rect id="SVGID_45_" x="3.547" y="-38.687" width="337.166" height="436.334"/>
		</defs>
		<clipPath id="SVGID_46_">
			<use xlink:href="#SVGID_45_"  overflow="visible"/>
		</clipPath>
		<path clip-path="url(#SVGID_46_)" fill="none" stroke="#FFFFFF" stroke-miterlimit="10" d="M184.355,116.842h1.959
			c2.029,0,3.42,0.221,4.174,0.665c0.756,0.443,1.133,1.266,1.133,2.465c0,1.288-0.5,2.31-1.504,3.066s-2.363,1.134-4.078,1.134
			h-1.684V116.842z M184.355,135.211v-8.644h2.881l6.555,8.644h3.859l-7.168-9.452c1.633-0.83,2.797-1.729,3.494-2.694
			c0.697-0.965,1.045-2.172,1.045-3.617c0-2.104-1.004-3.571-3.01-4.401c-0.939-0.4-2.617-0.6-5.033-0.6h-5.811v20.765H184.355z"/>
	</g>
	<g>
		<path fill="#FFFFFF" d="M213.695,159.029v-21.27h3.266v10.427l8.906-10.427h3.295l-8.588,10.03l10.229,11.24h-3.922l-9.92-10.842
			v10.842H213.695z"/>
	</g>
	<polygon fill="none" stroke="#FFFFFF" stroke-miterlimit="10" points="216.963,159.028 216.963,148.187 226.883,159.028 
		230.805,159.028 220.576,147.789 229.164,137.761 225.867,137.761 216.963,148.187 216.963,137.761 213.695,137.761 
		213.695,159.028 	"/>
	<g>
		<path fill="#FFFFFF" d="M142.311,239.898l4.9-12.425h1.908l4.9,12.425H152l-1.174-3.108h-5.678l-1.193,3.108H142.311z
			 M145.719,235.356h4.537l-2.279-5.937L145.719,235.356z"/>
		<path fill="#FFFFFF" d="M156.295,239.898v-12.425h1.908v10.992h6.691v1.433H156.295z"/>
		<path fill="#FFFFFF" d="M168.188,239.898v-12.425h8.396v1.433h-6.488v3.767h5.5v1.434h-5.5v4.358h6.934v1.433H168.188z"/>
		<path fill="#FFFFFF" d="M179.828,239.898v-12.425h3.477c1.445,0,2.449,0.12,3.012,0.358c1.199,0.497,1.801,1.375,1.801,2.634
			c0,0.865-0.209,1.587-0.625,2.165c-0.418,0.578-1.115,1.115-2.092,1.612l4.289,5.656h-2.309l-3.922-5.171h-1.725v5.171H179.828z
			 M181.734,233.293h1.008c1.027,0,1.84-0.227,2.441-0.68c0.6-0.453,0.9-1.064,0.9-1.834c0-0.718-0.227-1.209-0.678-1.475
			c-0.453-0.265-1.285-0.398-2.5-0.398h-1.172V233.293z"/>
		<path fill="#FFFFFF" d="M195.014,239.898v-10.992h-4.775v-1.433h11.467v1.433h-4.785v10.992H195.014z"/>
	</g>
	<path fill="none" stroke="#FFFFFF" stroke-miterlimit="10" d="M147.977,229.421l2.279,5.936h-4.533L147.977,229.421z
		 M143.957,239.898l1.193-3.108h5.68l1.172,3.108h2.02l-4.902-12.425h-1.906l-4.9,12.425H143.957z"/>
	<polygon fill="none" stroke="#FFFFFF" stroke-miterlimit="10" points="164.896,239.898 164.896,238.466 158.205,238.466 
		158.205,227.474 156.295,227.474 156.295,239.898 	"/>
	<polygon fill="none" stroke="#FFFFFF" stroke-miterlimit="10" points="177.031,239.898 177.031,238.466 170.098,238.466 
		170.098,234.108 175.596,234.108 175.596,232.675 170.098,232.675 170.098,228.908 176.584,228.908 176.584,227.474 
		168.189,227.474 168.189,239.898 	"/>
	<g>
		<defs>
			<rect id="SVGID_47_" x="3.547" y="-38.687" width="337.166" height="436.334"/>
		</defs>
		<clipPath id="SVGID_48_">
			<use xlink:href="#SVGID_47_"  overflow="visible"/>
		</clipPath>
		<path clip-path="url(#SVGID_48_)" fill="none" stroke="#FFFFFF" stroke-miterlimit="10" d="M181.738,228.908h1.172
			c1.213,0,2.047,0.132,2.496,0.397c0.453,0.266,0.678,0.758,0.678,1.476c0,0.77-0.299,1.38-0.898,1.834
			c-0.602,0.452-1.414,0.68-2.441,0.68h-1.006V228.908z M181.738,239.898v-5.171h1.723l3.922,5.171h2.309l-4.289-5.654
			c0.979-0.499,1.674-1.035,2.092-1.613c0.416-0.577,0.627-1.298,0.627-2.165c0-1.258-0.604-2.136-1.803-2.634
			c-0.561-0.238-1.564-0.358-3.012-0.358h-3.477v12.425H181.738z"/>
		<polygon clip-path="url(#SVGID_48_)" fill="none" stroke="#FFFFFF" stroke-miterlimit="10" points="196.922,239.898 
			196.922,228.908 201.707,228.908 201.707,227.474 190.24,227.474 190.24,228.908 195.014,228.908 195.014,239.898 		"/>
	</g>
</g>
</svg>
