<?xml version="1.0" encoding="utf-8"?>
<!-- Generator: Adobe Illustrator 16.0.0, SVG Export Plug-In . SVG Version: 6.00 Build 0)  -->
<!DOCTYPE svg PUBLIC "-//W3C//DTD SVG 1.1//EN" "http://www.w3.org/Graphics/SVG/1.1/DTD/svg11.dtd">
<svg version="1.1" id="Layer_1" xmlns="http://www.w3.org/2000/svg" xmlns:xlink="http://www.w3.org/1999/xlink" x="0px" y="0px"
	 width="300px" height="300px" viewBox="0 0 300 300" enable-background="new 0 0 300 300" xml:space="preserve">
<g>
	
		<rect x="97.785" y="200.021" fill="none" stroke="#000000" stroke-width="18" stroke-miterlimit="10" width="104.737" height="62.044"/>
	
		<rect x="77.207" y="159.786" transform="matrix(0.7625 -0.647 0.647 0.7625 -98.0813 96.2896)" stroke="#000000" stroke-width="3" stroke-miterlimit="10" width="9.828" height="43.922"/>
	
		<rect x="212.965" y="159.786" transform="matrix(-0.7626 -0.6469 0.6469 -0.7626 266.4702 461.2858)" stroke="#000000" stroke-width="3" stroke-miterlimit="10" width="9.83" height="43.921"/>
	
		<line fill="none" stroke="#000000" stroke-width="3" stroke-miterlimit="10" x1="117.459" y1="175.258" x2="100.075" y2="150.508"/>
	<line fill="none" stroke="#000000" stroke-miterlimit="10" x1="134.082" y1="171.933" x2="130.757" y2="159.743"/>
	
		<line fill="none" stroke="#000000" stroke-width="3" stroke-miterlimit="10" x1="183.693" y1="175.258" x2="201.076" y2="150.508"/>
	<line fill="none" stroke="#000000" stroke-miterlimit="10" x1="167.07" y1="171.933" x2="170.395" y2="159.743"/>
</g>
<path stroke="#000000" stroke-miterlimit="10" d="M217.666,69.495c6.295-2.523,10.707-8.36,10.707-15.163
	c0-9.111-7.912-16.498-17.67-16.498c-8.875,0-16.201,6.117-17.459,14.079h-87.389c-0.556-8.643-8.218-15.498-17.615-15.498
	c-9.759,0-17.669,7.386-17.669,16.498c0,7.174,4.914,13.262,11.763,15.533c-6.295,2.523-10.707,8.36-10.707,15.163
	c0,9.111,7.911,16.497,17.669,16.497c8.341,0,15.314-5.402,17.169-12.66h87.835c1.256,7.961,8.582,14.079,17.459,14.079
	c9.76,0,17.67-7.386,17.67-16.497C229.43,77.854,224.516,71.767,217.666,69.495z M204.131,69.638
	c0.219,0.082,0.443,0.154,0.666,0.228c-0.229,0.091-0.443,0.2-0.666,0.299V69.638z"/>
<circle fill="#ED1C24" stroke="#000000" stroke-miterlimit="10" cx="100" cy="67.971" r="3.167"/>
</svg>
