<?xml version="1.0" encoding="utf-8"?>
<!-- Generator: Adobe Illustrator 16.0.0, SVG Export Plug-In . SVG Version: 6.00 Build 0)  -->
<!DOCTYPE svg PUBLIC "-//W3C//DTD SVG 1.1//EN" "http://www.w3.org/Graphics/SVG/1.1/DTD/svg11.dtd">
<svg version="1.1" xmlns="http://www.w3.org/2000/svg" xmlns:xlink="http://www.w3.org/1999/xlink" x="0px" y="0px" width="300px"
	 height="300px" viewBox="0 0 300 300" enable-background="new 0 0 300 300" xml:space="preserve">
<g id="Layer_1">
	<g>
		<g id="XMLID_1_">
			<g>
				<path d="M181.504,273.031v2.497c0,3.23-2.535,5.854-5.664,5.854h-51.68c-3.129,0-5.664-2.624-5.664-5.854v-2.497H181.504z"/>
				<path d="M181.504,169.604v3.02h-63.008v-3.02c0-3.235,2.535-5.854,5.664-5.854h51.68
					C178.969,163.749,181.504,166.368,181.504,169.604z"/>
			</g>
			<g>
				<path fill="none" stroke="#000000" stroke-width="5" stroke-miterlimit="10" d="M181.504,273.031v2.497
					c0,3.23-2.535,5.854-5.664,5.854h-51.68c-3.129,0-5.664-2.624-5.664-5.854v-2.497V172.623v-3.02
					c0-3.235,2.535-5.854,5.664-5.854h51.68c3.129,0,5.664,2.619,5.664,5.854v3.02V273.031z"/>
				
					<line fill="none" stroke="#000000" stroke-width="5" stroke-miterlimit="10" x1="118.496" y1="172.623" x2="181.504" y2="172.623"/>
				
					<line fill="none" stroke="#000000" stroke-width="5" stroke-miterlimit="10" x1="118.496" y1="273.031" x2="181.504" y2="273.031"/>
			</g>
		</g>
	</g>
</g>
<g id="Layer_2">
	<g>
		<g>
			<defs>
				<path id="SVGID_1_" d="M128.984,215.811l-0.017-0.043C128.973,215.782,128.978,215.798,128.984,215.811 M146.695,185.895
					c0,0-8.215,5.874-7.436,16.018c0,0-0.068,0.432-0.446-0.104c0,0-1.722-1.309-1.396-4.578l-1.789,2.34
					c0,0-4.354,6.542-4.354,11.464c0,0-0.275,2.581,0.86,6.128c0,0-0.092,0.893-0.89,0.481c0,0-2.005-1.244-2.261-1.833l1.051,2.833
					c0,0,1.579,4.943,6.348,8.375l25.964-0.805c0,0,5.553-4.197,6.93-8.513c0,0-4.68,3.81-5.048,3.81c0,0-0.965,0.321-0.323-0.596
					c0,0,2.181-2.594,2.573-2.594c0,0,2.433-2.616,2.273-5.944c0,0,0.066-4.086-2.114-6.149c0,0-2.134-2.8-1.79-3.855
					c0,0-0.229-1.448,0.092-1.608c0,0-2.019,0.713-2.593,2.111c0,0-0.917,1.426-0.917,3.719c0,0-0.689-4.888-1.745-6.978
					c0,0-3.901-9.363-3.762-11.932c0,0,0.181-5.324,1.65-6.839C157.573,180.846,150.688,182.589,146.695,185.895"/>
			</defs>
			<clipPath id="SVGID_2_">
				<use xlink:href="#SVGID_1_"  overflow="visible"/>
			</clipPath>
			
				<linearGradient id="SVGID_3_" gradientUnits="userSpaceOnUse" x1="-155.1309" y1="546.9873" x2="-154.9932" y2="546.9873" gradientTransform="matrix(0 -335.3333 -335.3333 0 183572 -51793.5)">
				<stop  offset="0" style="stop-color:#FDE905"/>
				<stop  offset="0.4233" style="stop-color:#F47721"/>
				<stop  offset="1" style="stop-color:#CD2E28"/>
			</linearGradient>
			<rect x="128.968" y="180.846" clip-path="url(#SVGID_2_)" fill="url(#SVGID_3_)" width="40.309" height="46.173"/>
		</g>
		<g>
			<defs>
				<path id="SVGID_4_" d="M143.942,192.963c0,0-4.132,6.012-3.948,10.878c0,0-0.688,3.718-0.092,4.68c0,0-3.121-1.973-3.121-5.368
					c0,0-3.092,3.267-2.693,9.206l0.448,5.373c0,0,1.505,6.473,2.565,6.448l24.444-0.571c0,0,2.322-3.243,2.595-5.058l0.382-7.232
					c0,0-0.253-2.888,0-2.935c0,0,0.074-1.79,0.278-2.064c0,0-2.822,1.605-3.485,3.923l0.091,1.124l-0.896,0.161l-0.181-0.692
					c0,0-0.783-4.149-1.425-5c0,0-1.79-4.473-5.829-10.853c0,0-2.432-5.369-0.689-8.078
					C152.387,186.904,146.649,188.968,143.942,192.963"/>
			</defs>
			<clipPath id="SVGID_5_">
				<use xlink:href="#SVGID_4_"  overflow="visible"/>
			</clipPath>
			
				<linearGradient id="SVGID_6_" gradientUnits="userSpaceOnUse" x1="-155.2271" y1="546.9912" x2="-155.0894" y2="546.9912" gradientTransform="matrix(0 -270.7227 -270.7227 0 148232.25 -41799.25)">
				<stop  offset="0" style="stop-color:#FDC016"/>
				<stop  offset="0" style="stop-color:#FDBD17"/>
				<stop  offset="0.7921" style="stop-color:#F47721"/>
				<stop  offset="1" style="stop-color:#F47721"/>
			</linearGradient>
			<rect x="133.689" y="186.904" clip-path="url(#SVGID_5_)" fill="url(#SVGID_6_)" width="31.111" height="37.3"/>
		</g>
		<g>
			<defs>
				<path id="SVGID_7_" d="M146.421,194.855c0,0-4.235,4.191-3.203,9.549l-1.617,1.948c0,0-2.282,4.854-2.741,6.127l-0.37,6.589
					c0,0,0.141,1.962,0.37,2.11l19.265-2.198c0,0,0.83-2.018,0.037-3.606c0,0-0.116-1.127-0.887-3.645l-4.646-7.582
					c0,0-3.868-6.022-3.523-7.295c0,0-0.242-2.375,0-3.134c0.242-0.756,0.31-1.135,0.62-1.582
					C149.726,192.137,146.695,193.925,146.421,194.855"/>
			</defs>
			<clipPath id="SVGID_8_">
				<use xlink:href="#SVGID_7_"  overflow="visible"/>
			</clipPath>
			
				<linearGradient id="SVGID_9_" gradientUnits="userSpaceOnUse" x1="-153.7568" y1="547.041" x2="-153.6191" y2="547.041" gradientTransform="matrix(0 210.9196 210.9196 0 -115232.875 32622.5)">
				<stop  offset="0" style="stop-color:#FFC518"/>
				<stop  offset="0.3267" style="stop-color:#FFC518"/>
				<stop  offset="1" style="stop-color:#FEEA0A"/>
			</linearGradient>
			<rect x="138.489" y="192.137" clip-path="url(#SVGID_8_)" fill="url(#SVGID_9_)" width="20.465" height="29.042"/>
		</g>
		<g>
			<defs>
				<path id="SVGID_10_" d="M148.522,203.106l-1.688,2.846l-1.688,7.253c0,0-0.261,2.619,0.421,3.253l7.119,0.325l2.192,0.152
					c0,0-1.366-2.045-3.261-3.767c0,0-2.719-3.581-2.513-4.097l-0.663-3.076c0,0,0.176-2.533,0.252-3.027L148.522,203.106z
					 M148.694,202.969l0.033-0.022c-0.003-0.04-0.008-0.058-0.012-0.058C148.71,202.889,148.704,202.917,148.694,202.969"/>
			</defs>
			<clipPath id="SVGID_11_">
				<use xlink:href="#SVGID_10_"  overflow="visible"/>
			</clipPath>
			
				<linearGradient id="SVGID_12_" gradientUnits="userSpaceOnUse" x1="-153.0898" y1="546.9902" x2="-152.9521" y2="546.9902" gradientTransform="matrix(0 102.014 102.014 0 -55650.6875 15820.1875)">
				<stop  offset="0" style="stop-color:#F9ED36"/>
				<stop  offset="0.4332" style="stop-color:#F9ED36"/>
				<stop  offset="0.8886" style="stop-color:#F9F294"/>
				<stop  offset="1" style="stop-color:#F9F294"/>
			</linearGradient>
			<rect x="144.886" y="202.889" clip-path="url(#SVGID_11_)" fill="url(#SVGID_12_)" width="9.993" height="14.047"/>
		</g>
		<g>
			<defs>
				<rect id="SVGID_13_" x="107.867" y="168.04" width="84.266" height="109.052"/>
			</defs>
			<clipPath id="SVGID_14_">
				<use xlink:href="#SVGID_13_"  overflow="visible"/>
			</clipPath>
			<path clip-path="url(#SVGID_14_)" fill="#C32026" d="M141.601,214.716c0,2.473-1.817,4.477-4.062,4.477
				c-2.242,0-4.062-2.004-4.062-4.477c0-2.469,1.819-4.474,4.062-4.474C139.783,210.242,141.601,212.247,141.601,214.716"/>
			<path clip-path="url(#SVGID_14_)" fill="#C32026" d="M149.105,208.763c0,2.756-1.773,4.99-3.959,4.99
				c-2.187,0-3.959-2.234-3.959-4.99c0-2.758,1.772-4.991,3.959-4.991C147.332,203.771,149.105,206.005,149.105,208.763"/>
			<path clip-path="url(#SVGID_14_)" fill="#C32026" d="M158.056,208.797c0,2.739-1.804,4.956-4.027,4.956
				c-2.225,0-4.027-2.217-4.027-4.956c0-2.737,1.803-4.956,4.027-4.956C156.252,203.841,158.056,206.06,158.056,208.797"/>
			<path clip-path="url(#SVGID_14_)" fill="#C32026" d="M166.042,214.787c0,2.433-1.772,4.405-3.959,4.405s-3.959-1.973-3.959-4.405
				c0-2.434,1.772-4.406,3.959-4.406S166.042,212.354,166.042,214.787"/>
		</g>
		<g>
			<defs>
				<rect id="SVGID_15_" x="107.867" y="168.04" width="84.266" height="109.052"/>
			</defs>
			<clipPath id="SVGID_16_">
				<use xlink:href="#SVGID_15_"  overflow="visible"/>
			</clipPath>
			<path clip-path="url(#SVGID_16_)" fill="#C32026" d="M149.737,258.421c0,0,2.19-8.042,3.224-9.692c0,0,2.616-5.095,4.338-7.161
				c0,0,5.024-8.124,4.817-8.607c0,0,2.893-4.816-2.063-11.839c0,0-1.138-1.839-3.514-3.306c-3.406-2.105-9.06-3.609-15.008,0.828
				c0,0-8.835,5.666-3.511,16.039c0,0,0.837,1.562,5.06,8.354c0,0,1.458,1.467,4.027,7.435
				C147.108,250.472,149.61,257.288,149.737,258.421"/>
		</g>
		<g>
			<defs>
				<rect id="SVGID_17_" x="107.867" y="168.04" width="84.266" height="109.052"/>
			</defs>
			<clipPath id="SVGID_18_">
				<use xlink:href="#SVGID_17_"  overflow="visible"/>
			</clipPath>
			<path clip-path="url(#SVGID_18_)" fill="#80A13E" d="M144.596,232.96l1.652-1.582c0,0-1.894-2.203,0-5.128l-1.652-1.618
				C144.596,224.632,141.188,228.52,144.596,232.96"/>
			<path clip-path="url(#SVGID_18_)" fill="#61120C" d="M152.995,231.345l1.515,1.615c0,0,1.379-0.857,1.583-3.337
				c0.207-2.479,0-0.173,0-0.173s0.679-2.511-1.502-4.956l-1.768,1.581C152.823,226.075,154.991,228.347,152.995,231.345"/>
			<path clip-path="url(#SVGID_18_)" fill="#F6A61C" d="M144.596,224.563l1.687,1.651c0,0,3.202-3.477,6.61,0l1.651-1.651
				C154.544,224.563,150.173,219.124,144.596,224.563"/>
			<path clip-path="url(#SVGID_18_)" d="M150.712,228.646l2.937-0.895v0.322l0.551-0.322l0.643-0.572l-0.733-0.161h-0.688
				l0.092,0.297l-3.1,0.78c0,0-0.688-0.787-1.468-0.253c-0.111,0.077-0.203,0.289-0.278,0.429c-0.027,0.048,0,0-0.044,0.054
				c0,0-0.412,0.941,0.438,1.355C149.061,229.681,150.367,230.484,150.712,228.646"/>
			<path clip-path="url(#SVGID_18_)" d="M150.724,228.758c0,0.63-0.511,1.139-1.138,1.139c-0.629,0-1.138-0.509-1.138-1.139
				c0-0.629,0.509-1.14,1.138-1.14C150.213,227.618,150.724,228.129,150.724,228.758"/>
			<circle clip-path="url(#SVGID_18_)" fill="none" stroke="#000000" stroke-miterlimit="10" cx="149.586" cy="228.758" r="1.138"/>
		</g>
		<text transform="matrix(1 0 0 1 134.9927 217.4541)" fill="#FFFFFF" font-family="'LucidaConsole'" font-size="8.2389">B</text>
		<g>
			<defs>
				<rect id="SVGID_19_" x="107.867" y="168.04" width="84.266" height="109.052"/>
			</defs>
			<clipPath id="SVGID_20_">
				<use xlink:href="#SVGID_19_"  overflow="visible"/>
			</clipPath>
			<path clip-path="url(#SVGID_20_)" fill="none" stroke="#FFFFFF" stroke-miterlimit="10" d="M136.528,215.021h0.29
				c0.555,0,0.994,0.098,1.317,0.293c0.322,0.197,0.485,0.461,0.485,0.793c0,0.285-0.099,0.484-0.296,0.591
				c-0.197,0.107-0.558,0.163-1.08,0.163h-0.717V215.021z M136.528,212.888h0.371c0.592,0,0.991,0.053,1.198,0.154
				c0.206,0.103,0.311,0.298,0.311,0.59c0,0.596-0.534,0.893-1.602,0.893h-0.278V212.888z M137.292,217.455
				c0.519,0,0.894-0.026,1.128-0.075c0.232-0.049,0.44-0.15,0.623-0.303c0.282-0.233,0.423-0.551,0.423-0.958
				c0-0.714-0.479-1.168-1.437-1.364c0.373-0.094,0.663-0.252,0.87-0.473c0.209-0.221,0.313-0.484,0.313-0.791
				c0-0.8-0.604-1.198-1.811-1.198h-1.665v5.162H137.292z"/>
		</g>
		<text transform="matrix(1.0149 0 0 1 142.5195 211.3584)" fill="#FFFFFF" font-family="'LucidaConsole'" font-size="8.5674">A</text>
		<path fill="none" stroke="#FFFFFF" stroke-miterlimit="10" d="M145.054,206.829l0.999,2.565h-1.989L145.054,206.829z
			 M143.291,211.355l0.523-1.341h2.489l0.514,1.341h0.885l-2.148-5.367h-0.835l-2.148,5.367H143.291z"/>
		<text transform="matrix(1 0 0 1 151.5156 211.5039)" fill="#FFFFFF" font-family="'LucidaConsole'" font-size="8.2837">R</text>
		<g>
			<defs>
				<rect id="SVGID_21_" x="107.867" y="168.04" width="84.266" height="109.052"/>
			</defs>
			<clipPath id="SVGID_22_">
				<use xlink:href="#SVGID_21_"  overflow="visible"/>
			</clipPath>
			<path clip-path="url(#SVGID_22_)" fill="none" stroke="#FFFFFF" stroke-miterlimit="10" d="M153.058,206.911h0.485
				c0.511,0,0.857,0.055,1.048,0.166c0.187,0.11,0.28,0.315,0.28,0.617c0,0.321-0.123,0.575-0.374,0.766
				c-0.251,0.188-0.592,0.284-1.021,0.284h-0.419V206.911z M153.058,211.501v-2.16h0.72l1.638,2.16h0.964l-1.791-2.362
				c0.406-0.206,0.699-0.433,0.874-0.673c0.173-0.241,0.261-0.543,0.261-0.903c0-0.526-0.251-0.894-0.755-1.101
				c-0.233-0.099-0.653-0.149-1.256-0.149h-1.452v5.188H153.058z"/>
		</g>
		<text transform="matrix(1 0 0 1 159.6855 217.4541)" fill="#FFFFFF" font-family="'LucidaConsole'" font-size="8.4855">K</text>
		<polygon fill="none" stroke="#FFFFFF" stroke-miterlimit="10" points="161.206,217.455 161.206,214.745 163.687,217.455 
			164.664,217.455 162.11,214.644 164.256,212.139 163.432,212.139 161.206,214.745 161.206,212.139 160.39,212.139 160.39,217.455 
					"/>
		<text transform="matrix(1 0 0 1 142.5195 237.666)" fill="#FFFFFF" font-family="'LucidaConsole'" font-size="4.9569">ALERT</text>
		<path fill="none" stroke="#FFFFFF" stroke-miterlimit="10" d="M143.964,235.047l0.57,1.484H143.4L143.964,235.047z
			 M142.959,237.665l0.299-0.776h1.419l0.293,0.776h0.504l-1.224-3.104h-0.477l-1.225,3.104H142.959z"/>
		<polygon fill="none" stroke="#FFFFFF" stroke-miterlimit="10" points="148.192,237.665 148.192,237.307 146.52,237.307 
			146.52,234.562 146.043,234.562 146.043,237.665 		"/>
		<polygon fill="none" stroke="#FFFFFF" stroke-miterlimit="10" points="151.228,237.665 151.228,237.307 149.493,237.307 
			149.493,236.22 150.868,236.22 150.868,235.86 149.493,235.86 149.493,234.92 151.116,234.92 151.116,234.562 149.015,234.562 
			149.015,237.665 		"/>
		<g>
			<defs>
				<rect id="SVGID_23_" x="107.867" y="168.04" width="84.266" height="109.052"/>
			</defs>
			<clipPath id="SVGID_24_">
				<use xlink:href="#SVGID_23_"  overflow="visible"/>
			</clipPath>
			<path clip-path="url(#SVGID_24_)" fill="none" stroke="#FFFFFF" stroke-miterlimit="10" d="M152.401,234.92h0.294
				c0.303,0,0.511,0.032,0.623,0.099c0.114,0.066,0.17,0.188,0.17,0.369c0,0.193-0.073,0.345-0.225,0.458
				c-0.15,0.113-0.354,0.169-0.608,0.169h-0.254V234.92z M152.401,237.665v-1.291h0.431l0.979,1.291h0.58l-1.073-1.411
				c0.245-0.124,0.417-0.259,0.522-0.403c0.104-0.145,0.155-0.324,0.155-0.544c0-0.313-0.15-0.532-0.448-0.656
				c-0.142-0.059-0.394-0.089-0.753-0.089h-0.87v3.104H152.401z"/>
			<polygon clip-path="url(#SVGID_24_)" fill="none" stroke="#FFFFFF" stroke-miterlimit="10" points="156.197,237.665 
				156.197,234.92 157.392,234.92 157.392,234.562 154.527,234.562 154.527,234.92 155.72,234.92 155.72,237.665 			"/>
		</g>
	</g>
</g>
<g id="Layer_3">
	<g>
		<path fill="none" stroke="#000000" stroke-width="5" stroke-linecap="round" stroke-miterlimit="10" d="M112.743,111.689
			c20.231-20.922,53.592-21.481,74.514-1.25"/>
		<path fill="none" stroke="#000000" stroke-width="5" stroke-linecap="round" stroke-miterlimit="10" d="M123.854,122.432
			c14.298-14.785,37.875-15.181,52.66-0.884"/>
		<path fill="none" stroke="#000000" stroke-width="5" stroke-linecap="round" stroke-miterlimit="10" d="M136.676,134.833
			c7.45-7.705,19.735-7.91,27.439-0.46"/>
	</g>
</g>
<g id="Layer_4">
	<path stroke="#000000" stroke-miterlimit="10" d="M194.399,47.584c4.131-1.656,7.025-5.485,7.025-9.949
		c0-5.979-5.191-10.825-11.594-10.825c-5.824,0-10.631,4.014-11.456,9.238h-57.341c-0.365-5.671-5.393-10.169-11.558-10.169
		c-6.403,0-11.595,4.847-11.595,10.825c0,4.707,3.225,8.701,7.719,10.191c-4.131,1.656-7.025,5.485-7.025,9.949
		c0,5.979,5.191,10.825,11.594,10.825c5.474,0,10.049-3.545,11.266-8.307h57.634c0.824,5.224,5.631,9.237,11.456,9.237
		c6.403,0,11.594-4.846,11.594-10.824C202.118,53.068,198.894,49.074,194.399,47.584z M185.519,47.678
		c0.144,0.054,0.291,0.101,0.437,0.149c-0.149,0.06-0.291,0.131-0.437,0.196V47.678z"/>
	<circle fill="#ED1C24" stroke="#000000" stroke-miterlimit="10" cx="118" cy="46.584" r="2.078"/>
</g>
</svg>
