<?xml version="1.0" encoding="utf-8"?>
<!-- Generator: Adobe Illustrator 16.0.0, SVG Export Plug-In . SVG Version: 6.00 Build 0)  -->
<!DOCTYPE svg PUBLIC "-//W3C//DTD SVG 1.1//EN" "http://www.w3.org/Graphics/SVG/1.1/DTD/svg11.dtd">
<svg version="1.1" xmlns="http://www.w3.org/2000/svg" xmlns:xlink="http://www.w3.org/1999/xlink" x="0px" y="0px" width="300px"
	 height="300px" viewBox="0 0 300 300" enable-background="new 0 0 300 300" xml:space="preserve">
<g id="Layer_1">
	<g>
		<g id="XMLID_1_">
			<g>
				<path d="M219.237,260.91v5.49c0,7.098-5.57,12.866-12.447,12.866H93.209c-6.877,0-12.447-5.769-12.447-12.866v-5.49H219.237z"/>
				<path d="M219.237,33.6v6.637H80.762V33.6c0-7.109,5.57-12.867,12.447-12.867H206.79C213.667,20.733,219.237,26.491,219.237,33.6
					z"/>
			</g>
			<g>
				<path fill="none" stroke="#000000" stroke-width="10" stroke-miterlimit="10" d="M219.237,260.91v5.49
					c0,7.098-5.57,12.866-12.447,12.866H93.209c-6.877,0-12.447-5.769-12.447-12.866v-5.49V40.237V33.6
					c0-7.109,5.57-12.867,12.447-12.867H206.79c6.877,0,12.447,5.758,12.447,12.867v6.637V260.91z"/>
				
					<line fill="none" stroke="#000000" stroke-width="10" stroke-miterlimit="10" x1="80.762" y1="40.237" x2="219.237" y2="40.237"/>
				
					<line fill="none" stroke="#000000" stroke-width="10" stroke-miterlimit="10" x1="80.762" y1="260.91" x2="219.237" y2="260.91"/>
			</g>
		</g>
	</g>
</g>
<g id="Layer_2">
	<g>
		<rect x="133.677" y="100.072" stroke="#000000" stroke-width="10" stroke-miterlimit="10" width="32.645" height="59.326"/>
		<polygon stroke="#000000" stroke-width="10" stroke-miterlimit="10" points="150,163.752 115.002,163.753 150,199.928 
			184.998,163.753 		"/>
	</g>
</g>
</svg>
